<?xml version="1.0" ?><svg id="Layer_1" style="enable-background:new 0 0 48 48;" version="1.1" viewBox="0 0 48 48" xml:space="preserve" xmlns="http://www.w3.org/2000/svg" xmlns:xlink="http://www.w3.org/1999/xlink"><g><g><path d="M30.5,41.9H17.5c-2.9,0-5.3-2.4-5.3-5.3V11.5c0-2.9,2.4-5.3,5.3-5.3h13.1c2.9,0,5.3,2.4,5.3,5.3v25.1    C35.9,39.5,33.5,41.9,30.5,41.9z M17.5,7.9c-2,0-3.6,1.6-3.6,3.6v25.1c0,2,1.6,3.6,3.6,3.6h13.1c2,0,3.6-1.6,3.6-3.6V11.5    c0-2-1.6-3.6-3.6-3.6H17.5z"/></g><g><path d="M27,37.7h-6c-0.5,0-0.9-0.4-0.9-0.9S20.5,36,21,36h6c0.5,0,0.9,0.4,0.9,0.9S27.5,37.7,27,37.7z"/></g></g></svg>