<svg xmlns="http://www.w3.org/2000/svg" width="36" height="36" viewBox="0 0 36 36">
    <defs>
        <linearGradient id="iyga7u171a" x1="95.986%" x2="3.045%" y1="50%" y2="50%">
            <stop offset="0%" stop-color="#00BFFF"/>
            <stop offset="100%" stop-color="#00BFFF"/>
        </linearGradient>
    </defs>
    <g fill="none" fill-rule="evenodd">
        <g fill="url(#iyga7u171a)" transform="translate(-1430 -222)">
            <g>
                <g>
                    <g>
                        <path d="M27.794 0v9.14l.622-.623c1.032-1.032 2.606-1.2 3.815-.505l1.845-1.845 1.491 1.491-1.845 1.845c.695 1.21.527 2.782-.505 3.815l-5.423 5.423V36H.01V5.563L5.574 0h22.22zm-2.11 2.11H8.258v6.137H2.12v25.644h23.564V20.85l-7.7 7.7-6.433 2.721-1.676-1.675-1.482 1.482H4.23v-2.11h3.29l2.355-2.355 1.474 1.474 1.835-4.337 2.846-2.847H5.405v-2.11H18.14l2.11-2.109H5.404v-2.109H22.36l3.325-3.326V2.11zM14.732 25.503L13.634 28.1l2.596-1.098-1.498-1.498zm12.939-13.258L16.064 23.853l1.817 1.817 11.607-11.607-1.817-1.817zM31.4 10.01c-.412-.412-1.08-.411-1.492 0l-.746.746 1.817 1.817.746-.746c.411-.411.411-1.08 0-1.492zm-11.97.347v2.11H8.374v-2.11H19.43zM6.148 2.408l-3.73 3.73h3.73v-3.73z" transform="translate(0 141) translate(1344 31) translate(86 50)"/>
                    </g>
                </g>
            </g>
        </g>
    </g>
</svg>
