<?xml version="1.0" encoding="utf-8"?>
<!-- Generator: Adobe Illustrator 23.0.1, SVG Export Plug-In . SVG Version: 6.00 Build 0)  -->
<svg version="1.1" id="Layer_5" xmlns="http://www.w3.org/2000/svg" xmlns:xlink="http://www.w3.org/1999/xlink" x="0px" y="0px"
	 viewBox="0 0 512 512" style="enable-background:new 0 0 512 512;" xml:space="preserve">
<style type="text/css">
	.st0{fill:#000080;}
</style>
<g>
	<path class="st0" d="M304,400h192v40H304V400z"/>
	<path class="st0" d="M320,240h64v40h-64V240z"/>
	<path class="st0" d="M112,432H72V256h80v128h-40V432z"/>
</g>
<path d="M72,280h80v16H72V280z"/>
<path d="M72,312h80v16H72V312z"/>
<path d="M72,344h80v16H72V344z"/>
<path d="M392,232h-80v80h-44l-48,64h-20V252.7L131.3,184H92.7L24,252.7V424H8v80h496V312H392V232z M328,248h48v64h-48V248z M328,392
	h-16v-16v-16h16V392z M264,488h-32v-32h32V488z M216,440v48h-16v-48h-64v48h-16v-64h176v64h-16v-48H216z M184,488h-32v-32h32V488z
	 M296,400v8H120v-16h176V400z M99.3,200h25.4l48,48H51.3L99.3,200z M40,264h144v112h-80v48H40L40,264z M24,440h80v48H24L24,440z
	 M424,488h-48v-16h48V488z M440,488v-32h-80v32h-48v-80h176v80H440z M392,392h-16v-32h16V392z M456,392h-16v-32h16V392z M488,392
	h-16v-48h-48v48h-16v-48h-48v48h-16v-48h-48v32h-56l36-48h212V392z"/>
<path d="M144,144c-13.2,0-24,10.8-24,24h16c0-4.4,3.6-8,8-8h32c22.1,0,40-17.9,40-40v-8.2c26.8-2,48-24.5,48-51.8
	c0-28.7-23.3-52-52-52h-12v16h12c19.8,0,36,16.2,36,36s-16.2,36-36,36h-12v24c0,13.2-10.8,24-24,24H144z"/>
<path d="M144,128h32l1.6-15.8l-4.7-0.9C156.2,107.9,144,93,144,76c0-19.8,16.1-36,36-36h4V24h-4c-28.6,0-52,23.3-52,52
	c0,13.8,5.5,26.6,14.6,36.1c-30.2,0.7-54.6,25.6-54.6,56h16C104,145.9,121.9,128,144,128z"/>
<path d="M384,168c-13.2,0-24,10.8-24,24v24h16v-24c0-4.4,3.6-8,8-8h32c22.1,0,40-17.9,40-40v-8.2c26.8-2,48-24.5,48-51.8
	c0-28.7-23.3-52-52-52h-12v16h12c19.8,0,36,16.2,36,36s-16.2,36-36,36h-12v24c0,13.2-10.8,24-24,24H384z"/>
<path d="M344,192c0-22.1,17.9-40,40-40h32l1.6-15.8l-4.7-0.9C396.2,131.9,384,117,384,100c0-19.8,16.1-36,36-36h4V48h-4
	c-28.6,0-52,23.3-52,52c0,13.8,5.5,26.6,14.6,36.1c-30.2,0.7-54.6,25.6-54.6,56v24h16V192z"/>
</svg>
