<svg xmlns="http://www.w3.org/2000/svg" width="22" height="25" viewBox="0 0 22 25">
    <g fill="none" fill-rule="evenodd">
        <g fill="#FFF" fill-rule="nonzero">
            <g>
                <g>
                    <g>
                        <path d="M21.68 9.745L11.297.227c-.339-.31-.86-.302-1.188.017L.302 9.762c-.167.163-.262.388-.262.621v13.672c0 .478.387.865.865.865h7.21c.479 0 .866-.387.866-.865V19.71h4.038v4.345c0 .478.387.865.865.865h7.211c.478 0 .865-.387.865-.865V10.383c0-.242-.101-.473-.28-.638zM14.75 23.19v-4.346c0-.478-.388-.865-.866-.865H8.116c-.478 0-.866.387-.866.865v4.346H1.77V10.75l8.959-8.695 9.5 8.71V23.19h-5.48z" transform="translate(-589 -510) translate(0 141) translate(370 357) translate(219 12)"/>
                        <path d="M13.777 9L9.777 12.723 8.223 11.276 7 12.414 9.777 15 15 10.138z" transform="translate(-589 -510) translate(0 141) translate(370 357) translate(219 12)"/>
                    </g>
                </g>
            </g>
        </g>
    </g>
</svg>
