<?xml version="1.0" encoding="utf-8"?>
<!-- Generator: Adobe Illustrator 23.0.1, SVG Export Plug-In . SVG Version: 6.00 Build 0)  -->
<svg version="1.1" id="Layer_1" xmlns="http://www.w3.org/2000/svg" xmlns:xlink="http://www.w3.org/1999/xlink" x="0px" y="0px"
	 viewBox="0 0 496 496" style="enable-background:new 0 0 496 496;" xml:space="preserve">
<style type="text/css">
	.st0{fill:#00BFFF;}
</style>
<path class="st0" d="M88,200h40v240H88V200z"/>
<path class="st0" d="M368,200h40v240h-40V200z"/>
<path d="M86,176h128v16h16v-16c0-8.8-7.2-16-16-16H86c-8.8,0-16,7.2-16,16v16h16V176z"/>
<path d="M496,392V248c0-30.9-25.1-56-56-56h-80h-32h-16H184h-16H76H56c-30.9,0-56,25.1-56,56v144c0,16.1,6.9,30.7,17.9,40.9
	C7.6,435.6,0,444.9,0,456v16c0,13.2,10.8,24,24,24h448c13.2,0,24-10.8,24-24v-16c0-11.1-7.6-20.4-17.9-23.1
	C489.1,422.7,496,408.1,496,392z M136,208h35h29h16h64h16h24h40v224H136V208z M16,392V248c0-22.1,17.9-40,40-40h64v224H56
	C33.9,432,16,414.1,16,392z M480,456v16c0,4.4-3.6,8-8,8H24c-4.4,0-8-3.6-8-8v-16c0-4.4,3.6-8,8-8h448C476.4,448,480,451.6,480,456z
	 M480,392c0,22.1-17.9,40-40,40h-64V208h64c22.1,0,40,17.9,40,40V392z"/>
</svg>
