<svg xmlns="http://www.w3.org/2000/svg" viewBox="0 0 196.8 285.8"><defs><style>.a{fill:#00BFFF;}.b{isolation:isolate;}.c{fill:#fff;}</style></defs><title>wallet</title><path d="M218,103.1H171.1v9.4H218a14.08,14.08,0,0,1,14.1,14.1v18.9a23.08,23.08,0,0,0-14.1-4.8H68a14.1,14.1,0,0,1,0-28.2h51.6v-9.4H68a23.43,23.43,0,0,0-23.4,23.4V262.4A23.43,23.43,0,0,0,68,285.8H218a23.43,23.43,0,0,0,23.4-23.4v-136A23.41,23.41,0,0,0,218,103.1Zm14,136H175.7a23.4,23.4,0,1,1,0-46.8H232Zm0-56.3H175.7a32.8,32.8,0,1,0,0,65.6H232v14.1a14.08,14.08,0,0,1-14.1,14.1H68a14.08,14.08,0,0,1-14.1-14.1V145.3A23.64,23.64,0,0,0,68,150H218a14.08,14.08,0,0,1,14.1,14.1v18.7Z" transform="translate(-44.6)"/><rect x="23.4" y="121.9" width="150" height="9.4"/><circle class="a" cx="98.4" cy="89.1" r="37.5"/><path d="M161.7,215.6a14.1,14.1,0,1,0,14.1-14.1A14.08,14.08,0,0,0,161.7,215.6Zm18.8,0a4.7,4.7,0,1,1-4.7-4.7A4.69,4.69,0,0,1,180.5,215.6Z" transform="translate(-44.6)"/><rect x="93.7" width="9.4" height="37.5"/><rect x="126.5" y="14.1" width="9.4" height="37.5"/><rect x="60.9" y="23.4" width="9.4" height="28.1"/><g class="b"><path class="c" d="M146.92,101.9h-9.39v7.74h-5.36V101.9h-5.8V97.5h5.8V93.65h-5.8v-4.4h5.8V68.81h15.06q6.56,0,10.4,3.34a11.34,11.34,0,0,1,3.84,9q0,6-3.68,9.21t-10.48,3.26h-9.78V97.5h9.39Zm-9.39-12.65h9.7c2.9,0,5.1-.68,6.62-2a7.66,7.66,0,0,0,2.27-6,7.54,7.54,0,0,0-2.36-5.77,9,9,0,0,0-6.36-2.24h-9.87Z" transform="translate(-44.6)"/></g></svg>