<?xml version="1.0" encoding="utf-8"?>
<!-- Generator: Adobe Illustrator 23.0.1, SVG Export Plug-In . SVG Version: 6.00 Build 0)  -->
<svg version="1.1" id="Layer_1" xmlns="http://www.w3.org/2000/svg" xmlns:xlink="http://www.w3.org/1999/xlink" x="0px" y="0px"
	 viewBox="0 0 496 496" style="enable-background:new 0 0 496 496;" xml:space="preserve">
<style type="text/css">
	.st0{fill:#00BFFF;}
</style>
<path class="st0" d="M330.5,128.7c5.7-17,20.8-29.8,39.1-32.2l12.3-28.8l-42.4-42.4l-25,16.3c-9.5-5.3-19.5-9.5-29.9-12.4L278.5,0
	h-61l-6.2,29.1c-10.4,2.9-20.5,7.1-29.9,12.4l-25-16.3l-42.3,42.3l12.1,28.8c18.4,2.4,33.1,15.8,39,33l2.8-6.1
	C182.3,92.1,213.7,72,248,72c34,0,65.3,19.9,79.7,50.6L330.5,128.7z"/>
<path class="st0" d="M313.7,218.2l-33.7-8.4V206c14.9-10.4,24-27.6,24-45.9v-14c0-31.1-24.4-57.1-54.3-58
	c-15.3-0.5-29.8,5.1-40.7,15.8c-11,10.6-17,24.9-17,40.2v16c0,18.3,9.1,35.5,24,45.9v3.8l-33.7,8.4c-17.8,4.5-30.3,20.4-30.3,38.8
	v14.1l22.3-5c6.4-1.4,13-2.2,19.6-2.2c9.3,0,18.6,1.4,27.5,4.3L258,280c4,0,7.9,0.6,11.7,1.6L320,296h8l16-8.4V257
	C344,238.6,331.5,222.6,313.7,218.2z"/>
<path d="M496,208h-18l-26.8,14.1c-3-1.7-6.2-3.1-9.5-3.9l-33.7-8.4V206c14.9-10.4,24-27.6,24-45.9v-14c0-31.1-24.4-57.1-54.3-58
	c-15.3-0.4-29.8,5.1-40.7,15.8c-11,10.6-17,24.9-17,40.2v16c0,18.3,9.1,35.5,24,45.9v3.8l-32,8l1.7,0.4c7.4,1.8,13.8,5.8,18.8,10.9
	l27.5-6.9v-25.3l-4-2.3c-12.3-7.1-20-20.4-20-34.6v-16c0-10.9,4.3-21.1,12.2-28.7c7.8-7.6,18.2-11.7,29.1-11.3
	c21.4,0.6,38.8,19.5,38.8,42v14c0,14.2-7.7,27.5-20,34.6l-4,2.3v25.3l40,10L326,288h-4.9l-49.2-14.1c-3.9-1.1-7.9-1.5-11.9-1.7
	l-36.2-11.6c-16.5-5.3-34.4-6.1-51.3-2.3L127,268.4l0.6-2.3l0.3-14.8l-42.2-24.6l18.2-4.5v-25.3l-4-2.3c-12.3-7.1-20-20.4-20-34.6
	v-16c0-10.9,4.3-21.1,12.2-28.7c7.8-7.6,18.2-11.7,29.1-11.3c21.4,0.6,38.8,19.5,38.8,42v14c0,14.2-7.7,27.5-20,34.6l-4,2.3v25.3
	l27.4,6.9c5-5.2,11.4-9.1,18.8-10.9l1.7-0.4l-32-8V206c14.9-10.4,24-27.6,24-45.9v-14c0-31.1-24.4-57.1-54.3-58
	C106.4,87.6,92,93.2,81,103.8S64,128.7,64,144v16c0,18.3,9.1,35.5,24,45.9v3.8l-22,5.5L26.2,192H0v165.8L78.7,384H94l1.9-6.7
	l24.1,14.5c0.4,13.1,10.9,23.7,24,24.1c0.5,13.1,10.9,23.5,24,24c0.5,13.1,10.9,23.5,24,24c0.5,13.4,11.4,24.1,24.9,24.1
	c5,0,9.9-1.6,14-4.3l7.1,6.3c4.4,3.9,10.2,6.1,16.1,6.1h1.5c13.3,0,24.1-10.8,24.3-24c13.2-0.2,23.8-10.8,24-24
	c13.2-0.2,23.8-10.8,24-24c13.3-0.3,24-11.2,24-24.5c0-0.8,0-1.6-0.1-2.4L496,324.9V208z M16,208h5.8l57.5,33.6l-29,116.1L16,346.2
	V208z M81.3,368l-15.7-5.2L93.8,250l18.2,10.6v2.3L82,368H81.3z M136,391c0-2.4,1-4.7,2.6-6.3l14.1-14.1c1.7-1.7,4-2.6,6.3-2.6
	c4.9,0,9,4,9,9c0,2.4-1,4.7-2.6,6.3l-14.1,14.1c-1.7,1.7-4,2.6-6.3,2.6C140,400,136,396,136,391z M160,415c0-2.4,1-4.7,2.6-6.3
	l14.1-14.1c1.7-1.7,4-2.6,6.3-2.6c4.9,0,9,4,9,9c0,2.4-1,4.7-2.6,6.3l-14.1,14.1c-1.7,1.7-4,2.6-6.3,2.6C164,424,160,420,160,415z
	 M184,439c0-2.4,1-4.7,2.6-6.3l14.1-14.1c1.7-1.7,4-2.6,6.3-2.6c4.9,0,9,4,9,9c0,2.4-1,4.7-2.6,6.3l-14.1,14.1
	c-1.7,1.7-4,2.6-6.3,2.6C188,448,184,444,184,439z M217,472c-4.9,0-9-4-9-9c0-2.4,1-4.7,2.6-6.3l14.1-14.1c1.7-1.7,4-2.6,6.3-2.6
	c4.9,0,9,4,9,9c0,2.4-1,4.7-2.6,6.3l-14.1,14.1C221.6,471,219.3,472,217,472z M255.7,480h-1.5c-2,0-4-0.7-5.5-2.1l-6-5.3l6-6
	c2.1-2.1,3.8-4.7,5-7.4l7.3,6.1c1.9,1.6,3,3.9,3,6.4C264,476.3,260.3,480,255.7,480z M327.4,408H326c-2,0-4-0.7-5.5-2l-43.4-36.2
	l-10.3,12.3l42.1,35.1c1.9,1.6,3,3.9,3,6.4c0,4.6-3.7,8.3-8.3,8.3h-1.7c-1.9,0-3.8-0.7-5.3-1.9l-43.5-36.2l-10.3,12.3l42.1,35.1
	c1.9,1.6,3,3.9,3,6.4c0,4.6-3.7,8.3-8.3,8.3c-3.1,0-6.1-1.1-8.4-3L253.3,438c-3.9-8-12-13.6-21.5-14c-0.5-13.1-10.9-23.5-24-24
	c-0.5-13.1-10.9-23.5-24-24c-0.5-13.4-11.4-24.1-24.9-24.1c-6.6,0-13,2.7-17.7,7.3l-14.1,14.1c-0.8,0.8-1.5,1.8-2.2,2.7l-24.6-14.7
	L122,286l54-12c14.2-3.2,29.1-2.5,42.9,1.9l11.8,3.8l-40,20c-9.1,4.6-14.8,13.8-14.8,24v1.6c0,14.8,12,26.8,26.8,26.8
	c4.9,0,9.6-1.3,13.8-3.8l29.8-17.9c6-3.6,14-2.8,19.2,1.8l67.6,60.8c1.8,1.6,2.8,4,2.8,6.4C336,404.1,332.1,408,327.4,408z
	 M480,315.1l-134.8,67.4c-0.4-0.5-0.9-0.9-1.4-1.3l-67.6-60.8c-5.9-5.3-13.6-8.3-21.6-8.3c-5.8,0-11.6,1.6-16.6,4.6l-29.8,17.9
	c-1.7,1-3.6,1.5-5.5,1.5c-6,0-10.8-4.8-10.8-10.8v-1.6c0-4.1,2.3-7.8,6-9.7l44.6-22.3c7.6-3.8,16.7-4.7,24.9-2.3l50.3,14.4L330,304
	l150-79V315.1z"/>
</svg>
