<?xml version="1.0" encoding="utf-8"?>
<!-- Generator: Adobe Illustrator 23.0.1, SVG Export Plug-In . SVG Version: 6.00 Build 0)  -->
<svg version="1.1" id="Layer_1" xmlns="http://www.w3.org/2000/svg" xmlns:xlink="http://www.w3.org/1999/xlink" x="0px" y="0px"
	 viewBox="0 0 496 496" style="enable-background:new 0 0 496 496;" xml:space="preserve">
<style type="text/css">
	.st0{fill:#CCCCCC;}
	.st1{fill:#00BFFF;}
</style>
<g>
	<path class="st0" d="M88.6,32v55.9H32.7v55.9h287.6V32H88.6z"/>
	<path class="st1" d="M376.2,423.4c-30.8,0-55.9-25.1-55.9-55.9s25.1-55.9,55.9-55.9s55.9,25.1,55.9,55.9S407,423.4,376.2,423.4z"/>
	<path class="st0" d="M240.4,431.4H32.7V287.6h207.7V431.4z"/>
</g>
<path d="M488,271.6c-30.8,0-55.9-25.1-55.9-55.9v-8h-79.9V0H85.3L0.7,84.6v378.8H323c14.7,12.7,31.5,23.4,50,31.3l3.1,1.3l3.1-1.3
	c71-30.4,116.8-99.9,116.8-177v-46.1H488z M80.6,27.3v52.6H28L80.6,27.3z M16.7,95.9h79.9V16h239.7v191.7h-16v8
	c0,30.8-25.1,55.9-55.9,55.9h-8v46.1c0,49,18.6,94.9,50.3,129.7h-290V95.9z M480,317.7c0,69.6-40.6,132.3-103.9,160.9
	C313,450,272.3,387.3,272.3,317.7v-30.6c33.3-3.7,59.8-30.2,63.5-63.5h80.8c3.7,33.3,30.2,59.8,63.5,63.5L480,317.7L480,317.7z"/>
<path d="M372.6,371.5l-16-10.6l-8.9,13.3l32,21.3l51.7-120.7l-14.7-6.3L372.6,371.5z"/>
<path d="M64.6,159.8h175.8v16H64.6V159.8z"/>
<path d="M32.7,159.8h16v16h-16V159.8z"/>
<path d="M32.7,191.7h207.7v16H32.7V191.7z"/>
<path d="M32.7,223.7h207.7v16H32.7V223.7z"/>
<path d="M32.7,255.6h207.7v16H32.7V255.6z"/>
</svg>
