<svg xmlns="http://www.w3.org/2000/svg" width="40" height="36" viewBox="0 0 40 36">
    <defs>
        <linearGradient id="y9wf4adv9a" x1="95.986%" x2="3.045%" y1="50%" y2="50%">
            <stop offset="0%" stop-color="#00BFFF"/>
            <stop offset="100%" stop-color="#00BFFF"/>
        </linearGradient>
    </defs>
    <g fill="none" fill-rule="evenodd">
        <g fill="url(#y9wf4adv9a)" transform="translate(-1424 -425)">
            <g>
                <g>
                    <g>
                        <g>
                            <path d="M35.923 4.543H26.93V1.915c0-1.054-.858-1.911-1.911-1.911H14.367c-1.054 0-1.911.857-1.911 1.91v2.629H3.462C1.552 4.543 0 6.096 0 8.004v24.53c0 1.91 1.553 3.462 3.462 3.462h32.461c1.909 0 3.462-1.552 3.462-3.461V8.005c0-1.91-1.553-3.462-3.462-3.462zM24.621 2.31v2.232h-9.857V2.31h9.857zm11.302 4.54c.636 0 1.154.517 1.154 1.153v7.015h-10.17c-.188-1.16-.653-2.252-1.372-3.207-.928-1.232-2.248-2.156-3.717-2.602-.35-.106-.729-.04-1.022.178-.294.217-.467.561-.467.927v3.607l-.637.274-.636-.274v-3.608c0-.365-.173-.709-.467-.926-.293-.218-.673-.284-1.022-.178-1.47.446-2.79 1.37-3.717 2.602-.72.955-1.184 2.047-1.373 3.207H2.307V8.004c0-.636.518-1.154 1.155-1.154h32.461zm-11.228 9.355c0 2.758-2.244 5.002-5.003 5.002-2.758 0-5.002-2.244-5.002-5.002 0-1.648.785-3.132 2.058-4.051v2.527c0 .46.274.877.698 1.06l1.79.77c.291.125.621.125.912 0l1.79-.77c.424-.183.699-.6.699-1.06v-2.527c1.272.919 2.058 2.403 2.058 4.05zm-7.132 6.993c.674.206 1.389.317 2.13.317.74 0 1.455-.111 2.129-.317v3.518h-4.26v-3.518zM2.308 32.535V17.327h10.16c.294 1.901 1.323 3.562 2.787 4.684v5.86c0 .637.517 1.153 1.154 1.153h6.566c.638 0 1.154-.516 1.154-1.153v-5.86c1.464-1.122 2.493-2.783 2.787-4.684h10.16v15.208c0 .636-.517 1.154-1.153 1.154H3.462c-.637 0-1.154-.518-1.154-1.154z" transform="translate(0 141) translate(1344 31) translate(0 219) translate(80 34)"/>
                        </g>
                    </g>
                </g>
            </g>
        </g>
    </g>
</svg>
